<?xml version="1.0" encoding="UTF-8"?>
<svg width="93px" height="93px" viewBox="0 0 93 93" version="1.1" xmlns="http://www.w3.org/2000/svg" xmlns:xlink="http://www.w3.org/1999/xlink">
    <!-- Generator: Sketch 51.3 (57544) - http://www.bohemiancoding.com/sketch -->
    <title>loding-mule</title>
    <desc>Created with Sketch.</desc>
    <defs></defs>
    <g id="loding-mule" stroke="none" stroke-width="1" fill="none" fill-rule="evenodd">
        <g id="Group" transform="translate(2.000000, 2.000000)">
            <path d="M44.5,89 C69.077,89 89,69.0767 89,44.5 C89,19.9233 69.077,0 44.5,0 C19.9233,0 0,19.9233 0,44.5 C0,69.0767 19.9233,89 44.5,89 Z" id="Shape" stroke="#8D8DF9" stroke-width="3"></path>
            <path d="M66.5267774,83.5918228 C68.5101559,82.4587524 67.1213153,79.0593036 67.3769666,76.793163 C67.8870801,72.1190249 66.6112018,67.8980437 62.9012853,64.7819516 C62.362634,64.3287948 62.3340962,63.9322381 62.645634,63.3089245 C64.4304368,59.6829568 66.3282018,56.0852891 67.8870801,52.3460024 C70.4364586,46.3121562 72.277148,40.136691 71.9656101,33.4229312 C71.7384966,28.7487932 68.6516559,24.4430308 64.3460124,23.3098416 C61.2294447,22.4883091 58.6515284,23.2815416 56.6966878,25.9160579 C55.9606499,26.9075093 55.3090363,27.9556796 54.8274606,29.0887499 C53.2412335,32.6296988 52.4754687,36.3974043 51.6823552,40.193291 C50.5218172,45.8305805 50.0687793,51.4961699 50.2388171,57.2467783 C50.2661659,58.4932865 50.2388171,59.7679757 50.2388171,60.9294649 C48.3398631,60.787846 46.4135603,60.5612082 44.4872575,60.5612082 C42.5328925,60.5612082 40.5784086,60.816146 38.5953869,60.957765 C38.5953869,60.7594271 38.5670869,60.5327893 38.5953869,60.3061514 C39.2753005,50.8446753 38.0855112,41.5814181 35.4509949,32.5164988 C34.7427813,30.0802013 33.779511,27.7290418 32.136565,25.7460201 C30.9184758,24.272993 29.5021676,23.2248226 27.5758648,23.0832037 C22.1652132,22.6583469 17.3210373,27.2757661 17.0377994,33.1112745 C16.8677616,37.077199 17.2644373,40.9298046 18.3692076,44.7541101 C20.2672104,51.2129321 22.9583267,57.3317972 26.2160377,63.1957245 C26.5275756,63.7622002 26.7826323,64.2437759 26.1311377,64.7819516 C22.420151,67.8697437 21.2586618,72.0055871 21.5418996,76.6797252 C21.6835186,79.1160226 22.0234753,81.5522011 22.3917321,83.9883795 C22.4200321,83.9317795 44.0342196,96.3111288 66.5267774,83.5918228 Z" id="Shape" fill="#8D8DF9" fill-rule="nonzero"></path>
        </g>
    </g>
</svg>