<?xml version="1.0" standalone="no"?>
<!DOCTYPE svg PUBLIC "-//W3C//DTD SVG 20010904//EN"
 "http://www.w3.org/TR/2001/REC-SVG-20010904/DTD/svg10.dtd">
<svg version="1.0" xmlns="http://www.w3.org/2000/svg"
 width="261.000000pt" height="261.000000pt" viewBox="0 0 261.000000 261.000000"
 preserveAspectRatio="xMidYMid meet">
<metadata>
Created by potrace 1.11, written by Peter Selinger 2001-2013
</metadata>
<g transform="translate(0.000000,261.000000) scale(0.100000,-0.100000)"
fill="#000000" stroke="none">
<path d="M1810 2249 c-56 -13 -843 -157 -980 -179 -154 -25 -228 -58 -311
-137 -183 -174 -195 -462 -27 -648 l45 -50 -106 0 c-104 0 -110 -1 -183 -38
-316 -156 -309 -601 12 -756 70 -34 81 -36 170 -36 115 0 176 19 258 79 62 46
118 121 147 199 l18 49 18 -56 c44 -143 164 -259 313 -301 43 -13 85 -16 156
-13 89 3 104 7 176 42 64 32 94 56 169 134 49 53 274 284 498 515 l409 419 -7
51 c-27 190 -146 334 -329 397 -49 16 -50 17 -61 71 -19 97 -84 183 -173 228
-57 29 -157 43 -212 30z m186 -54 c90 -40 167 -142 176 -233 l3 -34 -470 -297
c-259 -164 -471 -297 -472 -297 -1 1 11 27 26 58 124 246 -7 559 -272 649
l-48 16 93 17 c51 9 262 48 468 85 215 39 390 66 410 63 19 -2 58 -14 86 -27z
m-1075 -169 c92 -20 163 -58 229 -125 213 -213 151 -561 -125 -697 -65 -32
-88 -38 -161 -42 -195 -10 -365 101 -434 285 -96 256 66 532 338 578 43 7 79
13 82 14 3 0 35 -6 71 -13z m1395 -166 c115 -57 209 -181 235 -313 l12 -57
-196 -202 c-108 -112 -291 -300 -406 -418 l-209 -215 14 55 c41 159 -5 321
-125 441 -102 101 -214 145 -352 137 -38 -2 -65 0 -61 3 4 4 221 143 482 308
534 339 488 319 606 261z m-846 -628 c300 -117 375 -508 139 -726 -66 -62
-127 -92 -221 -112 -231 -48 -467 122 -508 367 -35 203 95 407 305 482 68 24
208 19 285 -11z m-899 -42 c102 -38 176 -109 226 -217 38 -80 39 -208 4 -298
-34 -84 -133 -183 -216 -215 -242 -91 -489 48 -536 303 -22 118 21 246 111
336 108 108 270 144 411 91z m377 -72 c-32 -42 -68 -112 -84 -163 -10 -34 -13
-37 -19 -20 -25 68 -57 128 -89 163 l-36 40 82 -5 c68 -4 108 0 167 16 2 1 -8
-14 -21 -31z"/>
<path d="M1997 2133 c-13 -12 -7 -23 13 -23 11 0 20 7 20 15 0 15 -21 21 -33
8z"/>
<path d="M1838 2050 c-60 -32 -74 -45 -58 -55 12 -8 132 55 138 73 6 19 -18
14 -80 -18z"/>
<path d="M1826 1922 c-172 -97 -222 -133 -184 -132 20 1 391 215 396 228 8 25
-30 8 -212 -96z"/>
<path d="M1568 1909 c-72 -36 -118 -65 -118 -74 0 -8 2 -15 5 -15 15 0 245
122 245 129 0 22 -21 16 -132 -40z"/>
<path d="M2015 1916 c-16 -13 -26 -28 -22 -32 9 -10 79 27 85 45 7 20 -32 12
-63 -13z"/>
<path d="M1710 1736 c-162 -96 -202 -126 -168 -126 20 0 361 203 366 218 8 25
-27 9 -198 -92z"/>
<path d="M1334 1783 c-17 -17 -17 -18 0 -21 18 -4 46 14 46 29 0 15 -28 10
-46 -8z"/>
<path d="M1445 1711 c-95 -56 -129 -87 -89 -79 28 5 213 111 218 126 11 25
-31 10 -129 -47z"/>
<path d="M1418 1564 c-32 -17 -37 -34 -10 -34 16 0 62 34 62 45 0 9 -25 4 -52
-11z"/>
<path d="M788 1899 c-101 -16 -188 -82 -231 -178 -32 -68 -31 -189 3 -256 114
-232 437 -234 557 -3 36 69 39 188 7 258 -61 132 -191 202 -336 179z m169 -49
c87 -38 163 -154 163 -249 0 -65 -27 -135 -72 -186 -113 -128 -303 -128 -415
-1 -198 225 48 558 324 436z"/>
<path d="M782 1703 c-41 -20 -62 -59 -62 -114 0 -33 6 -47 34 -75 30 -30 40
-34 86 -34 46 0 56 4 86 34 28 28 34 42 34 76 0 52 -25 95 -66 115 -41 19 -71
19 -112 -2z m119 -42 c52 -52 34 -128 -35 -151 -92 -30 -156 82 -87 151 20 20
39 29 61 29 22 0 41 -9 61 -29z"/>
<path d="M2387 1692 c-21 -22 -21 -32 -4 -32 14 0 47 31 47 43 0 14 -27 7 -43
-11z"/>
<path d="M2212 1539 c-40 -34 -72 -68 -72 -76 0 -21 11 -15 90 51 62 52 87 86
62 86 -4 0 -40 -27 -80 -61z"/>
<path d="M2243 1419 c-112 -99 -203 -184 -203 -190 0 -5 6 -9 13 -9 14 0 409
349 415 368 11 34 -40 -4 -225 -169z"/>
<path d="M2388 1393 c-72 -64 -96 -99 -64 -91 19 4 166 136 166 149 0 22 -30
5 -102 -58z"/>
<path d="M1952 1312 c-80 -75 -94 -92 -71 -92 13 0 189 151 189 162 0 25 -45
-2 -118 -70z"/>
<path d="M2088 1124 c-122 -110 -147 -139 -113 -132 22 4 263 220 264 236 2
28 -30 6 -151 -104z"/>
<path d="M1767 1145 c-7 -16 8 -29 23 -20 15 9 12 35 -4 35 -8 0 -16 -7 -19
-15z"/>
<path d="M1884 1099 c-66 -58 -88 -89 -64 -89 17 0 150 122 150 137 0 23 -16
14 -86 -48z"/>
<path d="M1853 913 c-25 -17 -31 -43 -10 -43 13 0 36 21 51 48 10 17 -14 14
-41 -5z"/>
<path d="M1202 1114 c-62 -23 -145 -103 -172 -166 -33 -76 -32 -175 2 -248 35
-78 70 -114 140 -149 53 -27 72 -31 142 -31 125 1 217 55 274 164 23 44 27 63
27 141 0 74 -4 97 -23 132 -33 63 -75 106 -134 138 -43 24 -67 29 -133 32 -54
2 -94 -2 -123 -13z m223 -38 c203 -94 224 -369 37 -487 -107 -68 -237 -57
-331 27 -133 120 -129 315 10 426 77 62 194 76 284 34z"/>
<path d="M1230 911 c-53 -52 -52 -131 1 -175 40 -34 72 -41 119 -27 52 15 80
56 80 116 0 40 -5 52 -34 81 -30 30 -40 34 -86 34 -43 0 -56 -4 -80 -29z m150
-26 c37 -37 33 -89 -9 -127 -28 -25 -39 -29 -70 -24 -91 14 -110 135 -26 172
38 17 73 10 105 -21z"/>
<path d="M346 1074 c-66 -21 -137 -93 -161 -163 -34 -104 -6 -212 75 -285 57
-51 97 -66 177 -66 81 0 134 22 186 74 53 52 70 92 75 171 6 91 -21 158 -86
215 -73 65 -167 84 -266 54z m167 -28 c128 -46 194 -200 138 -321 -108 -232
-452 -151 -451 106 1 152 168 266 313 215z"/>
<path d="M400 929 c-123 -50 -90 -219 42 -219 82 0 134 97 92 169 -28 47 -87
69 -134 50z m98 -55 c47 -53 10 -134 -62 -134 -47 0 -91 50 -82 93 15 76 92
98 144 41z"/>
</g>
</svg>
