<?xml version="1.0" standalone="no"?>
<!DOCTYPE svg PUBLIC "-//W3C//DTD SVG 20010904//EN"
 "http://www.w3.org/TR/2001/REC-SVG-20010904/DTD/svg10.dtd">
<svg version="1.0" xmlns="http://www.w3.org/2000/svg"
 width="700.000000pt" height="700.000000pt" viewBox="0 0 700.000000 700.000000"
 preserveAspectRatio="xMidYMid meet">
<metadata>
Created by potrace 1.11, written by Peter Selinger 2001-2013
</metadata>
<g transform="translate(0.000000,700.000000) scale(0.100000,-0.100000)"
fill="#000000" stroke="none">
<path d="M3488 6965 c-2 -2 -68 -6 -148 -9 -80 -4 -163 -8 -185 -11 -141 -15
-318 -43 -390 -62 -33 -8 -71 -17 -85 -19 -14 -3 -39 -9 -56 -15 -17 -5 -40
-11 -50 -14 -32 -7 -176 -52 -239 -75 -33 -12 -73 -26 -90 -32 -16 -6 -34 -15
-40 -19 -5 -5 -15 -9 -23 -9 -14 0 -317 -147 -407 -197 -164 -91 -391 -255
-565 -409 -156 -137 -261 -248 -429 -449 -139 -168 -354 -527 -451 -755 -18
-41 -39 -90 -47 -109 -53 -119 -148 -445 -182 -621 -19 -100 -22 -114 -27
-170 -3 -30 -7 -62 -10 -70 -3 -8 -7 -48 -10 -90 -3 -41 -7 -93 -9 -115 -6
-59 -5 -380 0 -455 5 -64 23 -220 30 -270 3 -14 7 -43 10 -65 4 -22 15 -80 26
-130 11 -49 22 -101 25 -115 14 -71 88 -312 123 -399 123 -304 211 -475 353
-689 189 -283 416 -537 663 -742 50 -41 92 -77 95 -80 6 -6 118 -88 195 -141
134 -93 440 -259 590 -320 259 -105 552 -190 770 -224 146 -22 216 -30 355
-40 69 -5 393 -6 440 -1 19 2 69 7 110 10 75 7 118 12 175 21 17 3 48 7 70 11
22 3 81 14 130 25 50 11 101 22 115 25 42 8 130 34 245 71 667 214 1268 641
1693 1201 75 100 72 96 145 208 206 313 385 730 463 1074 4 19 9 40 10 45 10
39 44 219 49 260 3 28 8 59 10 70 2 11 7 61 10 110 4 50 9 101 11 115 5 33 5
361 -1 430 -12 146 -21 228 -31 290 -2 14 -9 54 -14 90 -6 36 -17 93 -25 126
-8 34 -16 73 -19 85 -20 99 -84 301 -142 450 -287 732 -798 1326 -1499 1742
-66 39 -314 162 -385 190 -25 10 -54 22 -65 27 -23 10 -168 61 -240 85 -52 17
-299 80 -350 89 -16 3 -41 8 -55 11 -31 6 -220 33 -275 39 -22 3 -98 8 -170
11 -71 4 -145 8 -162 9 -18 2 -34 2 -35 1z m269 -239 c83 -6 310 -37 373 -51
14 -3 34 -7 45 -9 119 -24 371 -99 495 -148 276 -109 548 -260 775 -432 44
-33 85 -65 91 -71 6 -5 36 -30 65 -54 95 -79 268 -253 367 -371 329 -389 554
-828 673 -1313 16 -64 31 -132 34 -150 3 -17 10 -57 15 -87 48 -272 58 -636
24 -920 -27 -232 -97 -523 -175 -731 -17 -46 -37 -100 -45 -121 -7 -20 -38
-87 -68 -150 -166 -347 -364 -626 -636 -899 -131 -132 -183 -179 -304 -274
-47 -37 -240 -174 -242 -172 -11 12 -17 127 -19 337 -2 293 -10 344 -73 500
-50 125 -109 208 -229 327 -66 65 -73 75 -68 103 3 17 70 163 149 323 79 161
153 315 166 342 12 28 33 75 47 105 14 30 34 78 44 105 11 28 24 59 29 70 56
121 176 485 204 620 3 11 11 52 20 91 8 38 18 92 22 120 3 27 8 51 9 55 16 26
26 460 13 544 -62 403 -383 707 -738 699 -246 -5 -412 -157 -573 -524 -54
-124 -129 -398 -202 -741 -2 -9 -13 -73 -25 -144 -11 -71 -23 -131 -25 -134
-1 -3 -6 -35 -10 -71 -3 -36 -8 -72 -10 -80 -2 -8 -6 -44 -10 -80 -3 -36 -8
-78 -10 -95 -3 -27 -15 -201 -21 -310 -1 -22 -2 -183 -3 -358 -1 -298 -2 -318
-18 -313 -93 27 -636 27 -815 0 -44 -7 -42 -13 -37 106 9 258 2 689 -15 845
-2 17 -7 64 -10 105 -4 41 -11 98 -16 125 -5 28 -12 73 -15 100 -4 28 -9 66
-11 85 -3 19 -11 67 -19 105 -15 74 -22 111 -30 160 -3 17 -15 68 -26 115 -12
47 -23 96 -26 110 -7 38 -82 309 -103 370 -70 208 -156 357 -275 476 -106 106
-202 146 -345 146 -325 0 -622 -249 -713 -595 -18 -69 -21 -112 -21 -272 -1
-175 6 -314 19 -374 2 -14 7 -47 10 -74 3 -27 13 -79 21 -116 8 -36 17 -77 20
-91 18 -82 81 -289 136 -440 117 -326 234 -587 431 -962 77 -145 78 -147 63
-180 -8 -18 -46 -64 -85 -102 -144 -139 -235 -321 -267 -537 -17 -110 -10
-383 15 -570 l7 -57 -40 25 c-337 211 -688 549 -932 899 -35 51 -64 96 -64
102 0 6 -4 12 -8 14 -23 9 -174 296 -244 463 -263 623 -322 1312 -172 1980 52
235 168 550 277 757 53 100 109 199 119 213 5 6 37 54 73 108 102 155 229 311
372 457 124 127 311 289 413 360 84 58 221 150 224 150 2 0 42 22 89 49 47 28
121 66 164 86 43 21 89 43 103 50 46 24 224 92 325 125 177 56 404 107 557
126 24 2 57 7 73 9 17 2 66 7 110 11 44 4 81 7 82 8 5 4 351 -2 430 -8z"/>
</g>
</svg>
